<?xml version="1.0" encoding="UTF-8"?>
<svg width="90px" height="25px" viewBox="0 0 90 25" version="1.1" xmlns="http://www.w3.org/2000/svg" xmlns:xlink="http://www.w3.org/1999/xlink">
    <!-- Generator: Sketch 54.1 (76490) - https://sketchapp.com -->
    <title>Sm Logo</title>
    <desc>Created with Sketch.</desc>
    <g id="Sm-Logo" stroke="none" stroke-width="1" fill="none" fill-rule="evenodd">
        <g id="Logo" transform="translate(5.000000, 1.000000)">
            <g id="Gem" transform="translate(0.000000, 2.000000)">
                <path d="M10,3.11111111 L10,14.8888889 L5,18 L0,14.8888889 L0,3.11111111 L5,0 L10,3.11111111 Z" id="Shape" stroke="#616161" fill="#38BAC8"></path>
                <path d="M8,5.08695652 L8,12.9130435 L4.5,15 L1,12.9130435 L1,5.08695652 L4.5,3 L8,5.08695652 Z" id="Shape" fill="#62CEDA"></path>
                <g id="shine" transform="translate(2.000000, 3.000000)">
                    <path d="M6.75058151,2.40493919 L0.0305815149,6.5105411 L0.0305815149,4.45774014 L5.34862376,1.20866805 L6.75058151,2.07407407 L6.75058151,2.40493919 Z M6.75058151,3.85653831 L6.75058151,9.85185185 L3.39058151,11.9259259 L0.0305815149,9.85185185 L0.0305815149,7.96214022 L6.75058151,3.85653831 Z M0.0305815149,3.48638839 L0.0305815149,2.88765478 L4.07029893,0.419578653 L4.55777309,0.720488628 L0.0305815149,3.48638839 Z" id="Combined-Shape" fill-opacity="0.5" fill="#FFFFFF"></path>
                    <path d="M6.75058151,2.07407407 L6.75058151,9.85185185 L3.39058151,11.9259259 L0.0305815149,9.85185185 L0.0305815149,2.07407407 L3.39058151,0 L6.75058151,2.07407407 Z" id="Shape"></path>
                </g>
            </g>
            <text id="GRAVITY" font-family="LucidaGrande, Lucida Grande" font-size="10" font-weight="normal" letter-spacing="2.6099999" fill="#616161">
                <tspan x="18.9590628" y="10">GRAVIT</tspan>
                <tspan x="70.8104684" y="10">Y</tspan>
            </text>
        </g>
    </g>
</svg>